<svg width="70" height="52" viewBox="0 0 70 52" fill="none" xmlns="http://www.w3.org/2000/svg">
<path d="M66.8708 38.0369L62.6359 36.8269C62.4531 36.7747 62.3254 36.6054 62.3254 36.4152V35.0017C62.67 34.763 62.9986 34.4958 63.3058 34.1977C64.7947 32.7528 65.6146 30.8148 65.6146 28.7405V26.79L66.0241 25.9712C66.4735 25.0722 66.711 24.0659 66.711 23.061V17.7768C66.711 17.2105 66.2519 16.7514 65.6856 16.7514H55.8182C52.2301 16.7514 49.3109 19.6706 49.3109 23.2587V23.3198C49.3109 24.1554 49.5085 24.9923 49.8821 25.7396L50.4072 26.7898V28.4646C50.4072 31.1189 51.7152 33.5004 53.6964 34.9335L53.6967 36.415C53.6967 36.6434 53.6967 36.738 52.85 36.98L50.7836 37.5704L44.8062 35.3968C44.8276 35.1148 44.7325 34.8279 44.5267 34.6118L42.6166 32.605V29.2363C42.8185 29.0699 43.0176 28.899 43.2105 28.7182C45.6202 26.4597 47.0021 23.2708 47.0021 19.9695V17.2791C47.7297 15.6958 48.0985 14.0203 48.0985 12.2948V1.3313C48.0985 0.76501 47.6394 0.305908 47.0731 0.305908H31.7238C26.3221 0.305908 21.9275 4.70059 21.9275 10.1022V12.295C21.9275 14.0206 22.2962 15.6961 23.0238 17.2794V19.5942C23.0238 23.4272 24.7282 26.8805 27.4094 29.1571V32.6052L25.4993 34.6119C25.2935 34.8281 25.1984 35.1149 25.2198 35.397L18.9109 37.691C18.4538 37.8572 18.029 38.0824 17.6433 38.3551L16.6526 37.8598C19.6016 36.5762 20.5358 34.7708 20.5807 34.6811C20.7251 34.3925 20.7251 34.0526 20.5807 33.764C19.8414 32.2855 19.7519 29.5756 19.68 27.3982C19.6561 26.6733 19.6334 25.9885 19.59 25.3788C19.2404 20.4604 15.5014 16.7514 10.8927 16.7514C6.28387 16.7514 2.54475 20.4603 2.19529 25.3788C2.15195 25.9887 2.12926 26.6735 2.10533 27.3985C2.03342 29.5758 1.94373 32.2854 1.20463 33.7639C1.06025 34.0525 1.06025 34.3924 1.20463 34.681C1.24947 34.7707 2.18176 36.5723 5.13666 37.8575L2.38492 39.2333C0.913828 39.9694 0 41.448 0 43.0926V50.668C0 51.2343 0.459102 51.6934 1.02539 51.6934C1.59168 51.6934 2.05078 51.2343 2.05078 50.668V43.0926C2.05078 42.2296 2.53025 41.4537 3.30203 41.0678L6.72861 39.3546L7.92053 40.4873C8.75396 41.2793 9.8231 41.6751 10.8927 41.6751C11.9619 41.6751 13.0316 41.279 13.8648 40.4873L15.0566 39.3547L16.1738 39.9133C15.6477 40.7551 15.3491 41.7422 15.3491 42.7762V50.6683C15.3491 51.2346 15.8082 51.6937 16.3745 51.6937C16.9408 51.6937 17.3999 51.2346 17.3999 50.6683V42.7762C17.3999 41.3686 18.2887 40.0995 19.6118 39.6184L26.2634 37.1997L29.0324 41.3534C29.3863 41.8844 29.9536 42.225 30.5886 42.2879C30.6595 42.2948 30.7299 42.2982 30.8001 42.2982C31.3604 42.2982 31.897 42.0777 32.2982 41.6767L33.9875 39.9874V50.6684C33.9875 51.2347 34.4466 51.6938 35.0129 51.6938C35.5791 51.6938 36.0382 51.2347 36.0382 50.6684V39.9874L37.7275 41.6767C38.1285 42.0779 38.6652 42.2984 39.2256 42.2984C39.2957 42.2984 39.3662 42.295 39.4369 42.288C40.0721 42.2251 40.6394 41.8845 40.9933 41.3535L43.7624 37.2L50.4139 39.6187C51.7368 40.0998 52.6258 41.3688 52.6258 42.7765V50.6686C52.6258 51.2349 53.0849 51.694 53.6512 51.694C54.2175 51.694 54.6766 51.2349 54.6766 50.6686V42.7765C54.6766 41.3508 54.1101 40.0137 53.1599 39.0248L53.4133 38.9525C53.6688 38.8795 54.0174 38.7795 54.3674 38.6079L56.9855 41.226V50.6686C56.9855 51.2349 57.4446 51.694 58.0109 51.694C58.5772 51.694 59.0363 51.2349 59.0363 50.6686V41.226L61.6361 38.6261C61.7743 38.6964 61.9195 38.7557 62.0724 38.7993L66.3074 40.0093C67.274 40.2855 67.9492 41.1806 67.9492 42.186V50.6686C67.9492 51.2349 68.4083 51.694 68.9746 51.694C69.5409 51.694 70 51.2349 70 50.6686V42.186C70 40.2695 68.7132 38.5634 66.8708 38.0369ZM6.57822 36.2257C4.6602 35.5356 3.69811 34.6155 3.2874 34.113C3.5674 33.381 3.74896 32.5427 3.87188 31.6577C4.43734 33.0135 5.38439 34.171 6.57822 34.9968V36.2257ZM12.4523 39.0009C11.5778 39.8318 10.2077 39.8317 9.33338 39.0007L8.37977 38.0946C8.54068 37.7931 8.62914 37.4513 8.62914 37.0932V36.0003C9.34445 36.2238 10.1049 36.3444 10.8929 36.3444C11.68 36.3444 12.44 36.2233 13.1566 36.001L13.1564 37.0931C13.1564 37.4513 13.2448 37.7932 13.4058 38.0948L12.4523 39.0009ZM10.8932 34.2936C7.83125 34.2936 5.34037 31.8026 5.34037 28.7408C5.34037 28.1745 4.88127 27.7154 4.31498 27.7154C4.25756 27.7154 4.2015 27.7213 4.14668 27.7305C4.14969 27.6423 4.15256 27.554 4.15557 27.4666C4.1784 26.7615 4.20041 26.0956 4.24102 25.5244C4.37199 23.6819 5.10822 21.9842 6.31408 20.7436C7.53074 19.4918 9.15688 18.8025 10.8929 18.8025C12.629 18.8025 14.255 19.4918 15.4718 20.7436C16.6776 21.9842 17.4139 23.6819 17.5448 25.5244C17.5853 26.0954 17.6075 26.7613 17.6307 27.4662C17.6328 27.5267 17.6348 27.5881 17.6369 27.6491C16.5212 25.9303 14.7983 24.6636 12.5721 23.9483C10.5154 23.2875 8.74658 23.3284 8.67193 23.3303C8.40342 23.3378 8.14857 23.4502 7.96223 23.6435L6.11215 25.5622C5.71908 25.9699 5.73084 26.6191 6.13854 27.0121C6.54623 27.4052 7.19537 27.3933 7.58844 26.9858L9.12789 25.3893C10.4537 25.4541 14.7189 25.9501 16.3777 29.6028C15.9603 32.2945 13.6467 34.2936 10.8932 34.2936ZM15.2071 36.2292L15.2072 35.0062C16.4001 34.1849 17.3485 33.0297 17.9144 31.6636C18.0373 32.5465 18.2187 33.383 18.4982 34.1133C18.0898 34.611 17.1232 35.5393 15.2071 36.2292ZM25.0746 19.5941V17.05C25.0746 16.8956 25.0398 16.7432 24.9726 16.6042C24.3128 15.2378 23.9783 13.788 23.9783 12.295V10.1024C23.9783 5.8314 27.453 2.35683 31.7238 2.35683H46.0477V12.2952C46.0477 13.7882 45.7131 15.2379 45.0533 16.6043C44.9862 16.7433 44.9513 16.8958 44.9513 17.0501V19.9698C44.9513 22.7467 43.835 25.3223 41.808 27.2223C41.555 27.4593 41.2923 27.6817 41.0208 27.8888C41.0148 27.8929 41.0091 27.8974 41.0032 27.9016C39.1043 29.3433 36.7784 30.044 34.3495 29.8867C29.1486 29.5499 25.0746 25.0289 25.0746 19.5941ZM30.8481 40.2264C30.841 40.2335 30.8245 40.2503 30.791 40.2468C30.7576 40.2435 30.7445 40.224 30.7389 40.2155L27.5499 35.432L28.5761 34.3537L33.4139 37.6605L30.8481 40.2264ZM35.013 36.2694L29.4602 32.4738V30.5597C30.8969 31.3364 32.5057 31.8222 34.2167 31.9329C34.487 31.9504 34.7557 31.959 35.0235 31.959C36.9842 31.959 38.8712 31.4904 40.5658 30.6007V32.4738L35.013 36.2694ZM39.2871 40.2158C39.2815 40.2242 39.2684 40.2438 39.235 40.2471C39.2015 40.2513 39.1851 40.2337 39.1779 40.2267L36.612 37.6609L41.4498 34.3539L42.4762 35.4322L39.2871 40.2158ZM58.0109 39.3506L55.6839 37.0238C55.7245 36.8393 55.7475 36.6374 55.7473 36.4147L55.7472 35.982C56.3929 36.1939 57.0735 36.3197 57.7778 36.3407C57.8568 36.3432 57.9351 36.3443 58.0139 36.3443C58.7921 36.3443 59.5517 36.2267 60.2746 36.0024V36.4152C60.2746 36.6198 60.3004 36.8202 60.3487 37.0128L58.0109 39.3506ZM61.8777 32.726C60.7909 33.7807 59.3552 34.3377 57.8394 34.2909C54.8721 34.2019 52.458 31.5882 52.458 28.4649V26.548C52.458 26.3887 52.421 26.2317 52.3497 26.0894L51.7163 24.8226C51.4843 24.3584 51.3617 23.8389 51.3617 23.3199V23.2588C51.3617 20.8014 53.3609 18.8023 55.8182 18.8023H64.6602V23.0611C64.6602 23.7493 64.4975 24.4385 64.1897 25.0542L63.6721 26.0894C63.6009 26.2319 63.5638 26.3887 63.5638 26.548V28.7407C63.5638 30.2555 62.965 31.6708 61.8777 32.726Z" fill="#86929C"/>
</svg>
