<svg width="20" height="20" viewBox="0 0 20 20" fill="none" xmlns="http://www.w3.org/2000/svg">
<path d="M8.51537 12.4753C8.37942 12.4756 8.24477 12.4488 8.11915 12.3965C7.99354 12.3442 7.87945 12.2675 7.78345 12.1707C6.87493 11.2547 6.36475 10.0138 6.36475 8.72006C6.36475 7.42636 6.87493 6.18545 7.78345 5.26941L11.6022 1.42966C12.5187 0.508126 13.7381 0 15.0339 0C16.3297 0 17.5492 0.508126 18.4657 1.42966C19.3742 2.34571 19.8844 3.58662 19.8844 4.88032C19.8844 6.17401 19.3742 7.41492 18.4657 8.33097L16.7205 10.0857C16.5243 10.2692 16.2649 10.369 15.997 10.3641C15.7291 10.3593 15.4735 10.2501 15.284 10.0595C15.0945 9.86901 14.9859 9.61201 14.9811 9.34261C14.9762 9.07321 15.0755 8.81242 15.258 8.61511L17.0031 6.86034C17.3913 6.46822 17.6554 5.96935 17.7621 5.42658C17.8689 4.88381 17.8135 4.32142 17.6029 3.81025C17.3923 3.29909 17.036 2.86201 16.5789 2.55408C16.1217 2.24616 15.5842 2.08115 15.0339 2.07986C14.2905 2.07986 13.5904 2.37168 13.0647 2.90029L9.24602 6.74003C8.72445 7.26554 8.43152 7.97763 8.43152 8.72006C8.43152 9.46249 8.72445 10.1746 9.24602 10.7001C9.39037 10.8457 9.4886 11.031 9.52831 11.2327C9.56801 11.4344 9.54742 11.6433 9.46912 11.8333C9.39082 12.0232 9.25832 12.1855 9.08835 12.2998C8.91838 12.4141 8.71856 12.4751 8.5141 12.4753H8.51537Z" fill="white"/>
<path d="M4.85046 20C4.21285 20.0016 3.58126 19.8761 2.99221 19.6307C2.40315 19.3853 1.86834 19.0249 1.4187 18.5703C0.510188 17.6542 0 16.4133 0 15.1196C0 13.8259 0.510188 12.585 1.4187 11.669L3.16386 9.91423C3.36009 9.73073 3.61945 9.63093 3.88738 9.63581C4.1553 9.6407 4.4109 9.74989 4.60038 9.94042C4.78987 10.1309 4.89846 10.3879 4.90332 10.6573C4.90818 10.9268 4.80892 11.1875 4.62643 11.3849L2.88127 13.1396C2.49308 13.5317 2.22898 14.0306 2.12225 14.5734C2.01552 15.1161 2.07092 15.6785 2.28148 16.1897C2.49204 16.7009 2.84834 17.1379 3.3055 17.4459C3.76265 17.7538 4.30021 17.9188 4.85046 17.9201C5.59511 17.9201 6.29393 17.6283 6.81965 17.0997L10.6384 13.2599C11.1599 12.7344 11.4529 12.0223 11.4529 11.2799C11.4529 10.5375 11.1599 9.82537 10.6384 9.29987C10.4559 9.10256 10.3566 8.84177 10.3615 8.57237C10.3663 8.30297 10.4749 8.04596 10.6644 7.85544C10.8539 7.66491 11.1095 7.55571 11.3774 7.55083C11.6453 7.54595 11.9047 7.64575 12.1009 7.82925C13.0094 8.74529 13.5196 9.9862 13.5196 11.2799C13.5196 12.5736 13.0094 13.8145 12.1009 14.7305L8.28222 18.5703C7.83258 19.0249 7.29776 19.3853 6.70871 19.6307C6.11966 19.8761 5.48806 20.0016 4.85046 20Z" fill="white"/>
</svg>
