<svg width="7" height="11" viewBox="0 0 7 11" fill="none" xmlns="http://www.w3.org/2000/svg">
<path d="M0.499983 10C0.499222 9.86839 0.524448 9.73793 0.574212 9.61609C0.623977 9.49426 0.697301 9.38344 0.789983 9.29L4.09998 6L0.919983 2.7C0.733732 2.51264 0.62919 2.25919 0.62919 1.995C0.62919 1.73081 0.733732 1.47736 0.919983 1.29C1.01295 1.19627 1.12355 1.12188 1.24541 1.07111C1.36727 1.02034 1.49797 0.994202 1.62998 0.994202C1.76199 0.994202 1.8927 1.02034 2.01456 1.07111C2.13642 1.12188 2.24702 1.19627 2.33998 1.29L6.19998 5.29C6.38321 5.47693 6.48584 5.72825 6.48584 5.99C6.48584 6.25175 6.38321 6.50307 6.19998 6.69L2.19998 10.69C2.10702 10.7837 1.99642 10.8581 1.87456 10.9089C1.7527 10.9597 1.62199 10.9858 1.48998 10.9858C1.35797 10.9858 1.22726 10.9597 1.10541 10.9089C0.983547 10.8581 0.872946 10.7837 0.779983 10.69C0.601302 10.5046 0.501008 10.2575 0.499983 10Z" fill="#86929C"/>
</svg>
