<?xml version="1.0" encoding="UTF-8" standalone="no"?><!-- Generator: Gravit.io --><svg xmlns="http://www.w3.org/2000/svg" xmlns:xlink="http://www.w3.org/1999/xlink" style="isolation:isolate" viewBox="0 0 5.986 9.992" width="5.986pt" height="9.992pt"><defs><clipPath id="_clipPath_KANI0X6VtR8vqQM7BrcujkaYNHDs3zEv"><rect width="5.986" height="9.992"/></clipPath></defs><g clip-path="url(#_clipPath_KANI0X6VtR8vqQM7BrcujkaYNHDs3zEv)"><path d=" M 5.986 0.986 C 5.987 1.117 5.961 1.248 5.912 1.37 C 5.862 1.492 5.789 1.602 5.696 1.696 L 2.386 4.986 L 5.566 8.286 C 5.752 8.473 5.857 8.727 5.857 8.991 C 5.857 9.255 5.752 9.508 5.566 9.696 C 5.473 9.79 5.362 9.864 5.24 9.915 C 5.119 9.965 4.988 9.992 4.856 9.992 C 4.724 9.992 4.593 9.965 4.471 9.915 C 4.349 9.864 4.239 9.79 4.146 9.696 L 0.286 5.696 C 0.103 5.509 0 5.258 0 4.996 C 0 4.734 0.103 4.483 0.286 4.296 L 4.286 0.296 C 4.379 0.202 4.489 0.128 4.611 0.077 C 4.733 0.026 4.864 0 4.996 0 C 5.128 0 5.259 0.026 5.38 0.077 C 5.502 0.128 5.613 0.202 5.706 0.296 C 5.885 0.481 5.985 0.728 5.986 0.986 Z " fill="rgb(134,146,156)"/></g></svg>