<svg width="17" height="17" viewBox="0 0 17 17" fill="none" xmlns="http://www.w3.org/2000/svg">
<path fill-rule="evenodd" clip-rule="evenodd" d="M12.8047 11.5365C13.9194 10.0993 14.4448 8.29144 14.2739 6.48063C14.103 4.66983 13.2487 2.99214 11.8847 1.78888C10.5208 0.585614 8.74963 -0.0528307 6.93164 0.00342533C5.11366 0.0596814 3.38539 0.806413 2.09843 2.0917C0.810358 3.37789 0.0611853 5.10682 0.00358496 6.92619C-0.0540154 8.74555 0.584292 10.5184 1.78843 11.8835C2.99257 13.2486 4.67191 14.1032 6.48424 14.2731C8.29657 14.443 10.1055 13.9154 11.5424 12.7979L11.5808 12.8382L15.373 16.6313C15.4561 16.7143 15.5547 16.7802 15.6632 16.8252C15.7718 16.8701 15.8881 16.8933 16.0055 16.8933C16.123 16.8933 16.2393 16.8701 16.3478 16.8252C16.4564 16.7802 16.555 16.7143 16.638 16.6313C16.7211 16.5482 16.787 16.4496 16.8319 16.3411C16.8769 16.2326 16.9 16.1163 16.9 15.9988C16.9 15.8813 16.8769 15.765 16.8319 15.6565C16.787 15.548 16.7211 15.4494 16.638 15.3663L12.8449 11.5741C12.8318 11.5612 12.8184 11.5487 12.8047 11.5365ZM10.9488 3.35668C11.4535 3.85326 11.8549 4.44486 12.1299 5.09736C12.4048 5.74986 12.5479 6.45035 12.5508 7.15841C12.5537 7.86646 12.4163 8.56809 12.1467 9.22281C11.8771 9.87752 11.4805 10.4724 10.9798 10.9731C10.4791 11.4737 9.88425 11.8703 9.22953 12.14C8.57482 12.4096 7.87319 12.5469 7.16513 12.544C6.45708 12.5412 5.75659 12.3981 5.10409 12.1232C4.45159 11.8482 3.85999 11.4468 3.36341 10.942C2.37102 9.93336 1.81742 8.57341 1.82318 7.15841C1.82894 5.7434 2.3936 4.388 3.39417 3.38744C4.39473 2.38687 5.75013 1.82221 7.16513 1.81645C8.58013 1.81069 9.94009 2.36429 10.9488 3.35668Z" fill="#86929C"/>
</svg>
