<svg width="19" height="16" viewBox="0 0 19 16" fill="none" xmlns="http://www.w3.org/2000/svg">
<path d="M19 1.89525C18.4709 2.71111 17.8218 3.40659 17.0527 3.98169C17.0602 4.13593 17.064 4.31026 17.064 4.50468C17.064 5.58493 16.9121 6.66648 16.6083 7.74934C16.3044 8.8322 15.8403 9.8687 15.2159 10.8588C14.5915 11.8489 13.8477 12.7261 12.9846 13.4903C12.1214 14.2545 11.0838 14.8638 9.87188 15.3183C8.65992 15.7728 7.36103 16 5.97521 16C3.8124 16 1.82066 15.3947 0 14.1841C0.323146 14.2214 0.63307 14.24 0.929772 14.24C2.73663 14.24 4.35044 13.6631 5.7712 12.5092C4.92875 12.4932 4.17426 12.2243 3.50775 11.7027C2.84124 11.181 2.38257 10.5144 2.13172 9.70285C2.37966 9.75181 2.62437 9.77629 2.86585 9.77629C3.21345 9.77629 3.55547 9.7293 3.89193 9.6353C2.99288 9.44864 2.24703 8.98442 1.6544 8.24266C1.06178 7.50092 0.765478 6.64479 0.765478 5.6743V5.62428C1.31732 5.94104 1.90595 6.10953 2.53137 6.12975C1.99877 5.76167 1.57651 5.28167 1.26457 4.68977C0.952604 4.09787 0.796624 3.45732 0.796624 2.76814C0.796624 2.04128 0.972318 1.36444 1.32371 0.737615C2.30142 1.98142 3.48612 2.97551 4.87781 3.71988C6.26952 4.46427 7.76256 4.87768 9.35693 4.96011C9.28893 4.66632 9.25486 4.35973 9.25474 4.04035C9.25474 2.92519 9.63541 1.97301 10.3968 1.18381C11.1581 0.394602 12.0766 0 13.1524 0C14.2786 0 15.2272 0.425125 15.9983 1.27537C16.8792 1.09448 17.7041 0.767285 18.4728 0.293792C18.1766 1.26008 17.6059 2.00551 16.7607 2.53008C17.5376 2.43438 18.284 2.22277 19 1.89525H19Z" fill="white"/>
</svg>
